<?xml version="1.0" standalone="no"?>
<!DOCTYPE svg PUBLIC "-//W3C//DTD SVG 20010904//EN"
 "http://www.w3.org/TR/2001/REC-SVG-20010904/DTD/svg10.dtd">
<svg version="1.0" xmlns="http://www.w3.org/2000/svg"
 width="293.000000pt" height="293.000000pt" viewBox="0 0 293.000000 293.000000"
 preserveAspectRatio="xMidYMid meet">
<metadata>
Created by potrace 1.11, written by Peter Selinger 2001-2013
</metadata>
<g transform="translate(0.000000,293.000000) scale(0.100000,-0.100000)"
fill="#000000" stroke="none">
<path d="M1295 2832 c-3 -4 -20 -8 -38 -9 -36 -3 -44 -5 -107 -22 -200 -54
-375 -141 -515 -255 -58 -48 -185 -176 -185 -187 0 -4 -6 -14 -13 -21 -26 -26
-93 -134 -126 -203 -59 -123 -61 -128 -61 -136 0 -4 -5 -20 -12 -36 -15 -37
-14 -34 -38 -148 -33 -154 -31 -365 6 -520 21 -91 20 -88 26 -105 3 -8 14 -37
23 -65 42 -118 114 -250 195 -355 51 -66 215 -230 230 -230 6 0 8 -6 4 -12 -4
-7 -4 -10 0 -6 5 4 37 -13 73 -38 89 -61 268 -149 296 -145 4 1 7 -3 7 -7 0
-4 8 -8 18 -9 9 -1 42 -9 72 -18 30 -8 71 -18 90 -21 19 -3 55 -10 80 -14 71
-13 335 -5 417 14 133 29 299 93 388 149 153 96 247 177 341 297 144 185 221
343 270 562 28 122 29 351 3 493 -18 95 -25 127 -29 133 -2 1 -3 5 -4 10 -6
24 -32 94 -52 140 -13 29 -24 54 -24 57 0 8 -103 171 -132 210 -64 84 -220
227 -315 289 -152 100 -319 169 -458 192 -11 1 -31 6 -45 10 -32 8 -377 14
-385 6z"/>
</g>
</svg>
